<svg xmlns="http://www.w3.org/2000/svg" viewBox="0 0 457.46 51.51"><defs><style>.cls-1{fill:#eff1ff;}</style></defs><title>amanda</title><g id="Capa_2" data-name="Capa 2"><g id="Capa_1-2" data-name="Capa 1"><path class="cls-1" d="M46.22,0,68.81,51.51H49.93L32.14,7.83h4.53L18.89,51.51H0L22.59,0ZM16.55,42.85V28.78h35.1V42.85Z"/><path class="cls-1" d="M158.92,0V51.51H142.09V6.66l3.23.41L128,51.51H110.5L93.19,7.28l3.23-.48V51.51H79.6V0H107l15.38,42h-6.11L131.52,0Z"/><path class="cls-1" d="M215.92,0l22.6,51.51H219.63L201.84,7.83h4.53L188.59,51.51H169.7L192.3,0ZM186.25,42.85V28.78h35.1V42.85Z"/><path class="cls-1" d="M297,38.6l-4.81,1.16V0h17.17V51.51H287.21l-25.55-39.7,4.81-1.16V51.51H249.3V0h22.87Z"/><path class="cls-1" d="M351.83,0a39.48,39.48,0,0,1,16.45,3.19,25.69,25.69,0,0,1,11,9,23.59,23.59,0,0,1,3.92,13.59,23.68,23.68,0,0,1-3.92,13.57,25.52,25.52,0,0,1-11,9,39.48,39.48,0,0,1-16.45,3.2H324.5V0Zm-9.75,43.61-8-7.9h19.1a16,16,0,0,0,6.49-1.2,9.31,9.31,0,0,0,4.15-3.43,9.63,9.63,0,0,0,1.44-5.33,9.54,9.54,0,0,0-1.44-5.35A9.32,9.32,0,0,0,359.7,17a16,16,0,0,0-6.49-1.2h-19.1l8-7.9Z"/><path class="cls-1" d="M434.86,0l22.6,51.51H438.57L420.78,7.83h4.54L407.53,51.51H388.64L411.24,0ZM405.19,42.85V28.78h35.1V42.85Z"/></g></g></svg>