<svg xmlns="http://www.w3.org/2000/svg" viewBox="0 0 547.22 53.98"><defs><style>.cls-1{fill:#eff1ff;}</style></defs><title>escalona</title><g id="Capa_2" data-name="Capa 2"><g id="Capa_1-2" data-name="Capa 1"><path class="cls-1" d="M20.67,27,17.51,46.15l-6.73-7.42H49.86v14H0L3.78,27,0,1.24H49.52v14H10.78l6.73-7.42Zm26.65-6.11V33.1H8.52V20.88Z"/><path class="cls-1" d="M62.29,35.78h18a4.28,4.28,0,0,0,1.58,2.58A9.12,9.12,0,0,0,85.43,40a22,22,0,0,0,5.43.59,19.69,19.69,0,0,0,6.42-.83c1.53-.55,2.3-1.44,2.3-2.67a2.47,2.47,0,0,0-1.3-2.1q-1.31-.85-5.36-1.13l-8.52-.55q-11.59-.75-16.75-5a13.51,13.51,0,0,1-5.15-11,14.26,14.26,0,0,1,3.29-9.62A20,20,0,0,1,75,1.92,45.35,45.35,0,0,1,88.94,0a40.62,40.62,0,0,1,13.77,2.16,23.23,23.23,0,0,1,9.54,6.08,14.72,14.72,0,0,1,3.88,9.14h-18a3.35,3.35,0,0,0-1.34-2.13,8.09,8.09,0,0,0-3.19-1.38,22.54,22.54,0,0,0-5-.48,18.5,18.5,0,0,0-5.94.76c-1.44.5-2.16,1.33-2.16,2.47a2.35,2.35,0,0,0,1.27,2,11.53,11.53,0,0,0,4.91,1.1l9.62.62a43.3,43.3,0,0,1,12.22,2.23,14,14,0,0,1,6.83,4.84A12.92,12.92,0,0,1,117.51,35,15.57,15.57,0,0,1,114.14,45a21.75,21.75,0,0,1-9.44,6.63A38.9,38.9,0,0,1,90.52,54a43.24,43.24,0,0,1-14.7-2.27A22.87,22.87,0,0,1,66,45.33,14.86,14.86,0,0,1,62.29,35.78Z"/><path class="cls-1" d="M189.82,30.42A24.78,24.78,0,0,1,185,42.79,26.81,26.81,0,0,1,174.37,51,36.57,36.57,0,0,1,159.26,54a36.19,36.19,0,0,1-16.07-3.36,25.61,25.61,0,0,1-10.68-9.45A26.13,26.13,0,0,1,128.7,27a26.13,26.13,0,0,1,3.81-14.18,25.52,25.52,0,0,1,10.68-9.44A36.05,36.05,0,0,1,159.26,0a36.57,36.57,0,0,1,15.11,3A26.81,26.81,0,0,1,185,11.19a24.78,24.78,0,0,1,4.84,12.37H172A10.43,10.43,0,0,0,169.77,19a10.54,10.54,0,0,0-4.29-2.89,17.76,17.76,0,0,0-6.22-1,15.27,15.27,0,0,0-6.83,1.41,9.91,9.91,0,0,0-4.36,4.08A12.8,12.8,0,0,0,146.56,27a12.56,12.56,0,0,0,1.51,6.35,10.1,10.1,0,0,0,4.36,4.09,15,15,0,0,0,6.83,1.44,18.81,18.81,0,0,0,6.22-.93,9.85,9.85,0,0,0,4.29-2.81A10.49,10.49,0,0,0,172,30.42Z"/><path class="cls-1" d="M241.61,1.24l22.59,51.5H245.31L227.53,9.07h4.53L214.27,52.74H195.39L218,1.24ZM211.94,44.09V30H247V44.09Z"/><path class="cls-1" d="M292.7,1.24V44.92l-8-8h38.33V52.74H275V1.24Z"/><path class="cls-1" d="M363,54a37.77,37.77,0,0,1-16.45-3.36,26.09,26.09,0,0,1-11-9.45A25.6,25.6,0,0,1,331.71,27a25.6,25.6,0,0,1,3.91-14.18,26,26,0,0,1,11-9.44,41.81,41.81,0,0,1,32.89,0,26,26,0,0,1,11,9.44A25.6,25.6,0,0,1,394.34,27a25.6,25.6,0,0,1-3.91,14.18,26.09,26.09,0,0,1-11,9.45A37.76,37.76,0,0,1,363,54Zm0-15.8a17.78,17.78,0,0,0,7.21-1.33A10.35,10.35,0,0,0,374.87,33a10.82,10.82,0,0,0,1.62-6,10.84,10.84,0,0,0-1.62-6,10.35,10.35,0,0,0-4.63-3.85,20.21,20.21,0,0,0-14.42,0A10.32,10.32,0,0,0,351.18,21a10.84,10.84,0,0,0-1.61,6,10.81,10.81,0,0,0,1.61,6,10.32,10.32,0,0,0,4.64,3.85A17.71,17.71,0,0,0,363,38.18Z"/><path class="cls-1" d="M455.26,39.83,450.45,41V1.24h17.17v51.5H445.44L419.89,13.05l4.81-1.17V52.74H407.53V1.24H430.4Z"/><path class="cls-1" d="M524.62,1.24l22.6,51.5H528.33L510.54,9.07h4.54L497.29,52.74H478.4L501,1.24ZM495,44.09V30h35.09V44.09Z"/></g></g></svg>